<svg xmlns="http://www.w3.org/2000/svg" viewBox="0 0 96 96" fill="none">
  <circle cx="48" cy="48" r="45" fill="#24211c"/>
  <circle cx="48" cy="48" r="37" stroke="#e7bf63" stroke-width="2.2"/>
  <circle cx="48" cy="48" r="25" stroke="#f7f3e9" stroke-opacity=".34" stroke-width="1.4"/>
  <path d="M24 45.5C31.5 35.5 42 32.5 51.5 40.8C58.2 46.7 65.7 47.2 73 38.6" stroke="#e7bf63" stroke-width="3.2" stroke-linecap="round"/>
  <path d="M27 59.2C38.7 48.2 52.6 41.9 69.2 39.4C73.4 49.7 72.7 59.4 66.6 67.4C51 67.3 37.8 64.6 27 59.2Z" fill="#f7f3e9"/>
  <path d="M34.2 57.6C44.6 53.3 55 52.2 65.4 54.4" stroke="#b99b68" stroke-width="2.1" stroke-linecap="round"/>
  <circle cx="55.2" cy="51.4" r="2.4" fill="#d8a93a"/>
  <circle cx="62.2" cy="59.5" r="1.8" fill="#d8a93a"/>
  <circle cx="46.2" cy="58.4" r="1.6" fill="#d8a93a"/>
  <path d="M31.5 67.2V29.7L48 48.4L64.5 29.7V67.2" stroke="#f7f3e9" stroke-width="4.2" stroke-linecap="round" stroke-linejoin="round"/>
</svg>
